<?xml version="1.0" encoding="UTF-8"?>
<svg xmlns="http://www.w3.org/2000/svg" xmlns:xlink="http://www.w3.org/1999/xlink" width="316px" height="230px" viewBox="0 0 316 230" version="1.1">
<defs>
<filter id="alpha" filterUnits="objectBoundingBox" x="0%" y="0%" width="100%" height="100%">
  <feColorMatrix type="matrix" in="SourceGraphic" values="0 0 0 0 1 0 0 0 0 1 0 0 0 0 1 0 0 0 1 0"/>
</filter>
<mask id="mask0">
  <g filter="url(#alpha)">
<rect x="0" y="0" width="316" height="230" style="fill:rgb(0%,0%,0%);fill-opacity:0.2;stroke:none;"/>
  </g>
</mask>
<clipPath id="clip1">
  <rect x="0" y="0" width="316" height="230"/>
</clipPath>
<g id="surface5" clip-path="url(#clip1)">
<path style=" stroke:none;fill-rule:nonzero;fill:rgb(0%,0%,0%);fill-opacity:1;" d="M 218.425781 185.542969 C 218.421875 186.246094 218.414062 187.230469 218.382812 188.449219 C 218.378906 188.617188 218.371094 188.792969 218.367188 188.96875 C 218.324219 190.675781 218.265625 192.789062 218.179688 195.171875 C 218.175781 195.316406 218.171875 195.457031 218.164062 195.601562 C 218.054688 198.515625 217.875 201.902344 217.570312 207.273438 C 217.003906 217.1875 216.015625 208.636719 215.027344 212.113281 C 212.269531 210.417969 209.25 208.640625 206.023438 206.8125 C 205.441406 206.484375 204.851562 206.152344 204.261719 205.820312 C 197.804688 202.214844 190.59375 198.433594 183.0625 194.691406 C 182.765625 194.542969 182.464844 194.394531 182.167969 194.25 C 164.921875 185.710938 146.101562 177.410156 130.851562 171.867188 C 127.90625 170.796875 125.097656 169.832031 122.453125 168.984375 C 116.890625 167.203125 112.078125 165.957031 108.375 165.417969 C 104.523438 164.855469 101.859375 165.054688 100.785156 166.21875 C 100.742188 165.398438 100.703125 164.613281 100.660156 163.863281 C 100.644531 163.613281 100.628906 163.367188 100.609375 163.125 C 100.636719 163.058594 100.667969 162.996094 100.699219 162.933594 C 100.703125 162.921875 100.707031 162.914062 100.710938 162.90625 C 100.71875 162.882812 100.726562 162.863281 100.738281 162.84375 C 100.75 162.820312 100.765625 162.796875 100.78125 162.773438 C 100.792969 162.742188 100.808594 162.714844 100.828125 162.691406 C 100.863281 162.636719 100.902344 162.574219 100.949219 162.519531 C 100.980469 162.476562 101.015625 162.4375 101.050781 162.398438 C 101.066406 162.378906 101.078125 162.359375 101.097656 162.34375 C 101.113281 162.328125 101.128906 162.308594 101.148438 162.289062 C 101.15625 162.277344 101.167969 162.265625 101.179688 162.257812 C 101.210938 162.222656 101.246094 162.1875 101.285156 162.15625 C 101.429688 162.023438 101.582031 161.902344 101.742188 161.792969 C 101.800781 161.757812 101.859375 161.722656 101.914062 161.683594 C 102.320312 161.441406 102.746094 161.234375 103.1875 161.070312 C 103.339844 161.015625 103.492188 160.960938 103.660156 160.90625 C 103.71875 160.890625 103.773438 160.871094 103.835938 160.851562 C 103.921875 160.820312 104.011719 160.792969 104.105469 160.773438 C 104.5625 160.636719 105.054688 160.519531 105.589844 160.410156 C 105.75 160.378906 105.917969 160.347656 106.085938 160.320312 C 106.222656 160.296875 106.363281 160.269531 106.503906 160.246094 C 107.699219 160.058594 109.050781 159.917969 110.542969 159.824219 C 110.683594 159.816406 110.824219 159.808594 110.964844 159.800781 C 111.132812 159.792969 111.296875 159.785156 111.464844 159.777344 C 111.605469 159.769531 111.75 159.765625 111.894531 159.761719 C 112.035156 159.753906 112.179688 159.75 112.328125 159.742188 C 112.734375 159.730469 113.152344 159.71875 113.578125 159.710938 C 114.789062 159.691406 116.066406 159.699219 117.40625 159.726562 C 118.027344 159.738281 118.664062 159.761719 119.3125 159.789062 C 119.355469 159.789062 119.398438 159.792969 119.4375 159.792969 C 120.003906 159.808594 120.578125 159.835938 121.160156 159.863281 C 121.570312 159.886719 121.984375 159.90625 122.398438 159.929688 C 122.789062 159.953125 123.179688 159.976562 123.578125 160.003906 C 123.886719 160.023438 124.195312 160.046875 124.507812 160.066406 C 124.773438 160.085938 125.039062 160.105469 125.304688 160.121094 C 125.621094 160.144531 125.9375 160.171875 126.261719 160.195312 C 126.703125 160.230469 127.144531 160.265625 127.59375 160.304688 C 128.039062 160.34375 128.492188 160.382812 128.945312 160.421875 C 129.398438 160.464844 129.859375 160.507812 130.316406 160.550781 C 130.363281 160.554688 130.40625 160.558594 130.453125 160.5625 C 130.871094 160.609375 131.289062 160.648438 131.710938 160.691406 C 134.046875 160.929688 136.449219 161.207031 138.925781 161.527344 C 140.402344 161.714844 141.898438 161.917969 143.414062 162.132812 C 145.714844 162.457031 148.050781 162.8125 150.402344 163.191406 C 152.761719 163.570312 155.132812 163.976562 157.515625 164.402344 C 158.117188 164.507812 158.71875 164.617188 159.324219 164.730469 C 160.066406 164.867188 160.804688 165.007812 161.542969 165.148438 C 162.007812 165.238281 162.472656 165.324219 162.941406 165.417969 C 163.492188 165.527344 164.050781 165.636719 164.605469 165.742188 C 168.253906 166.46875 171.886719 167.238281 175.425781 168.046875 C 176.007812 168.179688 176.589844 168.316406 177.167969 168.449219 C 178.324219 168.71875 179.472656 168.992188 180.605469 169.269531 C 180.917969 169.347656 181.230469 169.421875 181.539062 169.5 C 182.3125 169.691406 183.082031 169.886719 183.839844 170.078125 L 183.839844 170.082031 C 183.882812 170.089844 183.925781 170.101562 183.972656 170.113281 C 184.527344 170.253906 185.074219 170.394531 185.621094 170.539062 C 186.910156 170.878906 188.179688 171.21875 189.425781 171.5625 C 190.25 171.796875 191.070312 172.023438 191.878906 172.257812 C 193.085938 172.609375 194.269531 172.964844 195.421875 173.320312 C 195.707031 173.40625 195.992188 173.496094 196.273438 173.582031 C 197.117188 173.847656 197.945312 174.109375 198.753906 174.371094 C 199.398438 174.582031 200.023438 174.792969 200.644531 175.007812 C 201.261719 175.222656 201.867188 175.433594 202.460938 175.648438 C 202.847656 175.785156 203.226562 175.925781 203.597656 176.0625 C 204.144531 176.261719 204.675781 176.464844 205.195312 176.667969 C 205.355469 176.730469 205.511719 176.792969 205.667969 176.851562 C 205.964844 176.964844 206.25 177.082031 206.527344 177.199219 C 206.71875 177.273438 206.902344 177.347656 207.085938 177.429688 C 207.269531 177.5 207.453125 177.578125 207.628906 177.652344 C 207.808594 177.726562 207.988281 177.800781 208.164062 177.882812 C 208.3125 177.941406 208.457031 178.007812 208.597656 178.070312 C 208.882812 178.195312 209.167969 178.320312 209.445312 178.449219 C 209.582031 178.515625 209.71875 178.574219 209.855469 178.640625 L 210.167969 178.785156 C 210.210938 178.808594 210.253906 178.828125 210.300781 178.847656 C 210.640625 179.007812 210.96875 179.167969 211.292969 179.332031 C 211.59375 179.484375 211.886719 179.636719 212.167969 179.785156 C 212.5 179.960938 212.816406 180.132812 213.121094 180.3125 C 213.183594 180.34375 213.242188 180.378906 213.304688 180.410156 C 213.507812 180.527344 213.703125 180.648438 213.902344 180.765625 C 214.285156 181.003906 214.652344 181.234375 214.992188 181.46875 C 215.332031 181.703125 215.644531 181.933594 215.9375 182.160156 C 215.9375 182.164062 215.9375 182.164062 215.941406 182.164062 C 216.082031 182.277344 216.21875 182.390625 216.347656 182.5 C 216.554688 182.679688 216.746094 182.851562 216.925781 183.03125 C 216.984375 183.085938 217.039062 183.140625 217.09375 183.203125 C 217.117188 183.222656 217.136719 183.242188 217.15625 183.265625 C 217.242188 183.359375 217.324219 183.453125 217.40625 183.542969 C 217.503906 183.65625 217.589844 183.769531 217.675781 183.882812 C 217.714844 183.9375 217.761719 183.996094 217.796875 184.050781 C 217.84375 184.121094 217.890625 184.191406 217.933594 184.261719 C 217.96875 184.316406 218 184.375 218.03125 184.433594 C 218.117188 184.578125 218.191406 184.730469 218.25 184.886719 C 218.292969 184.996094 218.328125 185.105469 218.359375 185.21875 C 218.386719 185.324219 218.410156 185.433594 218.425781 185.542969 Z M 218.425781 185.542969 "/>
</g>
</defs>
<g id="surface1">
<path style=" stroke:none;fill-rule:nonzero;fill:rgb(94.901961%,94.901961%,94.901961%);fill-opacity:1;" d="M 194.75 29.828125 C 194.75 35.757812 189.949219 40.566406 184.027344 40.566406 C 178.105469 40.566406 173.304688 35.757812 173.304688 29.828125 C 173.304688 23.898438 178.105469 19.09375 184.027344 19.09375 C 189.949219 19.09375 194.75 23.898438 194.75 29.828125 Z M 194.75 29.828125 "/>
<path style=" stroke:none;fill-rule:nonzero;fill:rgb(94.901961%,94.901961%,94.901961%);fill-opacity:1;" d="M 267.195312 199.902344 C 283.128906 187.75 290.742188 167.324219 285.976562 147.839844 C 285.855469 147.355469 285.730469 146.871094 285.601562 146.390625 C 282.441406 134.824219 274.625 123.832031 263.234375 120.136719 C 253.671875 117.035156 243.230469 119.417969 233.253906 118.1875 C 213.667969 115.761719 198.480469 99.894531 187.796875 83.277344 C 177.113281 66.660156 168.902344 48.058594 154.703125 34.332031 C 131.300781 11.703125 93.125 6.832031 64.109375 21.558594 C 35.09375 36.289062 16.609375 68.96875 17.398438 101.535156 C 18.183594 134.101562 37.492188 165.242188 65.53125 181.761719 C 75.828125 187.828125 87.742188 192.128906 99.597656 190.625 C 109.886719 189.320312 119.234375 183.785156 129.472656 182.140625 C 145.570312 179.558594 161.5625 186.84375 175.488281 195.339844 C 189.410156 203.832031 202.859375 213.898438 218.679688 217.835938 C 234.042969 221.660156 253.078125 210.671875 267.195312 199.902344 Z M 267.195312 199.902344 "/>
<path style=" stroke:none;fill-rule:nonzero;fill:rgb(24.705882%,23.921569%,33.72549%);fill-opacity:1;" d="M 244.296875 22.242188 C 243.949219 22.011719 243.59375 21.789062 243.246094 21.566406 C 233.148438 15.097656 222.324219 9.84375 211 5.910156 L 208.375 42.1875 L 191.726562 42.1875 L 191.726562 0.613281 C 190.679688 0.398438 189.621094 0.191406 188.566406 0 L 188.566406 42.1875 L 168.785156 42.1875 C 146.105469 42.1875 127.71875 23.777344 127.71875 1.066406 C 126.660156 1.292969 125.605469 1.539062 124.554688 1.800781 L 124.554688 42.1875 L 108.441406 42.1875 L 105.941406 7.59375 C 94.300781 12.066406 83.253906 17.945312 73.039062 25.097656 C 72.863281 25.21875 72.6875 25.34375 72.515625 25.464844 C 71.625 26.089844 70.75 26.722656 69.878906 27.367188 L 69.878906 165.765625 L 117.367188 165.765625 L 116.527344 154.125 L 111.910156 90.210938 L 204.902344 90.210938 L 200.28125 154.125 L 199.445312 165.765625 L 246.40625 165.765625 L 246.40625 23.644531 C 245.707031 23.167969 245.003906 22.703125 244.296875 22.242188 Z M 124.554688 79.65625 L 111.148438 79.65625 L 108.671875 45.355469 L 124.554688 45.355469 Z M 188.566406 79.65625 L 166.050781 79.65625 L 166.050781 78.976562 C 166.050781 78.316406 165.785156 77.683594 165.320312 77.21875 C 164.855469 76.75 164.222656 76.488281 163.5625 76.492188 L 153.773438 76.492188 C 152.402344 76.492188 151.292969 77.601562 151.292969 78.976562 L 151.292969 79.65625 L 127.71875 79.65625 L 127.71875 45.355469 L 188.566406 45.355469 Z M 191.726562 79.65625 L 191.726562 45.355469 L 208.144531 45.355469 L 205.667969 79.65625 Z M 191.726562 79.65625 "/>
<path style=" stroke:none;fill-rule:nonzero;fill:rgb(24.705882%,23.921569%,33.72549%);fill-opacity:1;" d="M 0 174.628906 C 3.488281 178.765625 7.261719 182.65625 11.289062 186.269531 L 304.636719 186.671875 C 308.667969 183.058594 312.441406 179.167969 315.925781 175.03125 Z M 0 174.628906 "/>
<path style=" stroke:none;fill-rule:nonzero;fill:rgb(24.705882%,23.921569%,33.72549%);fill-opacity:1;" d="M 198.925781 137.351562 L 198.925781 171.816406 C 198.929688 172.730469 199.667969 173.46875 200.582031 173.472656 L 251.578125 173.472656 C 252.488281 173.46875 253.230469 172.730469 253.230469 171.816406 L 253.230469 137.351562 C 253.226562 136.441406 252.488281 135.699219 251.578125 135.699219 L 200.582031 135.699219 C 199.667969 135.699219 198.929688 136.441406 198.925781 137.351562 Z M 198.925781 137.351562 "/>
<path style=" stroke:none;fill-rule:nonzero;fill:rgb(42.352941%,38.823529%,100%);fill-opacity:1;" d="M 200.125 137.78125 L 200.125 171.390625 C 200.125 171.878906 200.519531 172.273438 201.007812 172.273438 L 251.152344 172.273438 C 251.640625 172.273438 252.035156 171.878906 252.035156 171.390625 L 252.035156 137.78125 C 252.035156 137.292969 251.640625 136.894531 251.152344 136.894531 L 201.007812 136.894531 C 200.519531 136.894531 200.125 137.292969 200.125 137.78125 Z M 200.125 137.78125 "/>
<path style=" stroke:none;fill-rule:nonzero;fill:rgb(18.431373%,18.039216%,25.490196%);fill-opacity:1;" d="M 197.859375 178.535156 C 198.050781 178.773438 198.335938 178.910156 198.640625 178.910156 L 253.246094 178.910156 C 253.546875 178.910156 253.832031 178.773438 254.023438 178.535156 C 254.214844 178.300781 254.289062 177.992188 254.226562 177.695312 L 253.378906 173.664062 C 253.308594 173.332031 253.074219 173.054688 252.753906 172.933594 C 252.640625 172.890625 252.519531 172.867188 252.398438 172.867188 L 199.484375 172.867188 C 199.363281 172.867188 199.242188 172.890625 199.128906 172.933594 C 198.808594 173.054688 198.574219 173.332031 198.503906 173.664062 L 197.65625 177.695312 C 197.59375 177.992188 197.671875 178.300781 197.859375 178.535156 Z M 197.859375 178.535156 "/>
<path style=" stroke:none;fill-rule:nonzero;fill:rgb(24.705882%,23.921569%,33.72549%);fill-opacity:1;" d="M 251.8125 174.601562 L 250.523438 174.601562 C 250.414062 174.601562 250.328125 174.515625 250.328125 174.40625 L 250.328125 173.789062 C 250.328125 173.679688 250.414062 173.59375 250.523438 173.59375 L 251.8125 173.59375 C 251.921875 173.59375 252.011719 173.679688 252.011719 173.789062 L 252.011719 174.40625 C 252.011719 174.515625 251.921875 174.601562 251.8125 174.601562 Z M 251.8125 174.601562 "/>
<path style=" stroke:none;fill-rule:nonzero;fill:rgb(24.705882%,23.921569%,33.72549%);fill-opacity:1;" d="M 248.449219 174.601562 L 247.160156 174.601562 C 247.050781 174.601562 246.964844 174.515625 246.964844 174.40625 L 246.964844 173.789062 C 246.964844 173.679688 247.050781 173.59375 247.160156 173.59375 L 248.449219 173.59375 C 248.558594 173.59375 248.644531 173.679688 248.644531 173.789062 L 248.644531 174.40625 C 248.644531 174.515625 248.558594 174.601562 248.449219 174.601562 Z M 248.449219 174.601562 "/>
<path style=" stroke:none;fill-rule:nonzero;fill:rgb(24.705882%,23.921569%,33.72549%);fill-opacity:1;" d="M 245.085938 174.601562 L 243.796875 174.601562 C 243.6875 174.601562 243.601562 174.515625 243.601562 174.40625 L 243.601562 173.789062 C 243.601562 173.679688 243.6875 173.59375 243.796875 173.59375 L 245.085938 173.59375 C 245.195312 173.59375 245.28125 173.679688 245.28125 173.789062 L 245.28125 174.40625 C 245.28125 174.515625 245.195312 174.601562 245.085938 174.601562 Z M 245.085938 174.601562 "/>
<path style=" stroke:none;fill-rule:nonzero;fill:rgb(24.705882%,23.921569%,33.72549%);fill-opacity:1;" d="M 241.722656 174.601562 L 240.433594 174.601562 C 240.324219 174.601562 240.238281 174.515625 240.238281 174.40625 L 240.238281 173.789062 C 240.238281 173.679688 240.324219 173.59375 240.433594 173.59375 L 241.722656 173.59375 C 241.832031 173.59375 241.917969 173.679688 241.917969 173.789062 L 241.917969 174.40625 C 241.917969 174.515625 241.832031 174.601562 241.722656 174.601562 Z M 241.722656 174.601562 "/>
<path style=" stroke:none;fill-rule:nonzero;fill:rgb(24.705882%,23.921569%,33.72549%);fill-opacity:1;" d="M 238.359375 174.601562 L 237.070312 174.601562 C 236.960938 174.601562 236.875 174.515625 236.875 174.40625 L 236.875 173.789062 C 236.875 173.679688 236.960938 173.59375 237.070312 173.59375 L 238.359375 173.59375 C 238.46875 173.59375 238.554688 173.679688 238.554688 173.789062 L 238.554688 174.40625 C 238.554688 174.515625 238.46875 174.601562 238.359375 174.601562 Z M 238.359375 174.601562 "/>
<path style=" stroke:none;fill-rule:nonzero;fill:rgb(24.705882%,23.921569%,33.72549%);fill-opacity:1;" d="M 234.996094 174.601562 L 233.707031 174.601562 C 233.597656 174.601562 233.511719 174.515625 233.511719 174.40625 L 233.511719 173.789062 C 233.511719 173.679688 233.597656 173.59375 233.707031 173.59375 L 234.996094 173.59375 C 235.105469 173.59375 235.191406 173.679688 235.191406 173.789062 L 235.191406 174.40625 C 235.191406 174.515625 235.105469 174.601562 234.996094 174.601562 Z M 234.996094 174.601562 "/>
<path style=" stroke:none;fill-rule:nonzero;fill:rgb(24.705882%,23.921569%,33.72549%);fill-opacity:1;" d="M 231.632812 174.601562 L 230.34375 174.601562 C 230.234375 174.601562 230.148438 174.515625 230.148438 174.40625 L 230.148438 173.789062 C 230.148438 173.679688 230.234375 173.59375 230.34375 173.59375 L 231.632812 173.59375 C 231.742188 173.59375 231.828125 173.679688 231.828125 173.789062 L 231.828125 174.40625 C 231.828125 174.515625 231.742188 174.601562 231.632812 174.601562 Z M 231.632812 174.601562 "/>
<path style=" stroke:none;fill-rule:nonzero;fill:rgb(24.705882%,23.921569%,33.72549%);fill-opacity:1;" d="M 228.269531 174.601562 L 226.980469 174.601562 C 226.871094 174.601562 226.78125 174.515625 226.78125 174.40625 L 226.78125 173.789062 C 226.78125 173.679688 226.871094 173.59375 226.980469 173.59375 L 228.269531 173.59375 C 228.378906 173.59375 228.464844 173.679688 228.464844 173.789062 L 228.464844 174.40625 C 228.464844 174.515625 228.378906 174.601562 228.269531 174.601562 Z M 228.269531 174.601562 "/>
<path style=" stroke:none;fill-rule:nonzero;fill:rgb(24.705882%,23.921569%,33.72549%);fill-opacity:1;" d="M 224.90625 174.601562 L 223.617188 174.601562 C 223.507812 174.601562 223.417969 174.515625 223.417969 174.40625 L 223.417969 173.789062 C 223.417969 173.679688 223.507812 173.59375 223.617188 173.59375 L 224.90625 173.59375 C 225.011719 173.59375 225.101562 173.679688 225.101562 173.789062 L 225.101562 174.40625 C 225.101562 174.515625 225.011719 174.601562 224.90625 174.601562 Z M 224.90625 174.601562 "/>
<path style=" stroke:none;fill-rule:nonzero;fill:rgb(24.705882%,23.921569%,33.72549%);fill-opacity:1;" d="M 221.542969 174.601562 L 220.253906 174.601562 C 220.144531 174.601562 220.054688 174.515625 220.054688 174.40625 L 220.054688 173.789062 C 220.054688 173.679688 220.144531 173.59375 220.253906 173.59375 L 221.542969 173.59375 C 221.648438 173.59375 221.738281 173.679688 221.738281 173.789062 L 221.738281 174.40625 C 221.738281 174.515625 221.648438 174.601562 221.542969 174.601562 Z M 221.542969 174.601562 "/>
<path style=" stroke:none;fill-rule:nonzero;fill:rgb(24.705882%,23.921569%,33.72549%);fill-opacity:1;" d="M 218.179688 174.601562 L 216.886719 174.601562 C 216.78125 174.601562 216.691406 174.515625 216.691406 174.40625 L 216.691406 173.789062 C 216.691406 173.679688 216.78125 173.59375 216.886719 173.59375 L 218.179688 173.59375 C 218.285156 173.59375 218.375 173.679688 218.375 173.789062 L 218.375 174.40625 C 218.375 174.515625 218.285156 174.601562 218.179688 174.601562 Z M 218.179688 174.601562 "/>
<path style=" stroke:none;fill-rule:nonzero;fill:rgb(24.705882%,23.921569%,33.72549%);fill-opacity:1;" d="M 214.816406 174.601562 L 213.523438 174.601562 C 213.417969 174.601562 213.328125 174.515625 213.328125 174.40625 L 213.328125 173.789062 C 213.328125 173.679688 213.417969 173.59375 213.523438 173.59375 L 214.816406 173.59375 C 214.921875 173.59375 215.011719 173.679688 215.011719 173.789062 L 215.011719 174.40625 C 215.011719 174.515625 214.921875 174.601562 214.816406 174.601562 Z M 214.816406 174.601562 "/>
<path style=" stroke:none;fill-rule:nonzero;fill:rgb(24.705882%,23.921569%,33.72549%);fill-opacity:1;" d="M 211.449219 174.601562 L 210.160156 174.601562 C 210.054688 174.601562 209.964844 174.515625 209.964844 174.40625 L 209.964844 173.789062 C 209.964844 173.679688 210.054688 173.59375 210.160156 173.59375 L 211.449219 173.59375 C 211.558594 173.59375 211.648438 173.679688 211.648438 173.789062 L 211.648438 174.40625 C 211.648438 174.515625 211.558594 174.601562 211.449219 174.601562 Z M 211.449219 174.601562 "/>
<path style=" stroke:none;fill-rule:nonzero;fill:rgb(24.705882%,23.921569%,33.72549%);fill-opacity:1;" d="M 208.085938 174.601562 L 206.796875 174.601562 C 206.691406 174.601562 206.601562 174.515625 206.601562 174.40625 L 206.601562 173.789062 C 206.601562 173.679688 206.691406 173.59375 206.796875 173.59375 L 208.085938 173.59375 C 208.195312 173.59375 208.285156 173.679688 208.285156 173.789062 L 208.285156 174.40625 C 208.285156 174.515625 208.195312 174.601562 208.085938 174.601562 Z M 208.085938 174.601562 "/>
<path style=" stroke:none;fill-rule:nonzero;fill:rgb(24.705882%,23.921569%,33.72549%);fill-opacity:1;" d="M 204.722656 174.601562 L 203.433594 174.601562 C 203.324219 174.601562 203.238281 174.515625 203.238281 174.40625 L 203.238281 173.789062 C 203.238281 173.679688 203.324219 173.59375 203.433594 173.59375 L 204.722656 173.59375 C 204.832031 173.59375 204.921875 173.679688 204.921875 173.789062 L 204.921875 174.40625 C 204.921875 174.515625 204.832031 174.601562 204.722656 174.601562 Z M 204.722656 174.601562 "/>
<path style=" stroke:none;fill-rule:nonzero;fill:rgb(24.705882%,23.921569%,33.72549%);fill-opacity:1;" d="M 201.359375 174.601562 L 200.070312 174.601562 C 199.960938 174.601562 199.875 174.515625 199.875 174.40625 L 199.875 173.789062 C 199.875 173.679688 199.960938 173.59375 200.070312 173.59375 L 201.359375 173.59375 C 201.46875 173.59375 201.554688 173.679688 201.554688 173.789062 L 201.554688 174.40625 C 201.554688 174.515625 201.46875 174.601562 201.359375 174.601562 Z M 201.359375 174.601562 "/>
<path style=" stroke:none;fill-rule:nonzero;fill:rgb(24.705882%,23.921569%,33.72549%);fill-opacity:1;" d="M 251.855469 176.289062 L 250.5625 176.289062 C 250.457031 176.289062 250.367188 176.199219 250.367188 176.089844 L 250.367188 175.472656 C 250.367188 175.363281 250.457031 175.277344 250.5625 175.277344 L 251.855469 175.277344 C 251.960938 175.277344 252.050781 175.363281 252.050781 175.472656 L 252.050781 176.089844 C 252.050781 176.199219 251.960938 176.289062 251.855469 176.289062 Z M 251.855469 176.289062 "/>
<path style=" stroke:none;fill-rule:nonzero;fill:rgb(24.705882%,23.921569%,33.72549%);fill-opacity:1;" d="M 248.488281 176.289062 L 247.199219 176.289062 C 247.09375 176.289062 247.003906 176.199219 247.003906 176.089844 L 247.003906 175.472656 C 247.003906 175.363281 247.09375 175.277344 247.199219 175.277344 L 248.488281 175.277344 C 248.597656 175.277344 248.6875 175.363281 248.6875 175.472656 L 248.6875 176.089844 C 248.6875 176.199219 248.597656 176.289062 248.488281 176.289062 Z M 248.488281 176.289062 "/>
<path style=" stroke:none;fill-rule:nonzero;fill:rgb(24.705882%,23.921569%,33.72549%);fill-opacity:1;" d="M 245.125 176.289062 L 243.835938 176.289062 C 243.726562 176.289062 243.640625 176.199219 243.640625 176.089844 L 243.640625 175.472656 C 243.640625 175.363281 243.726562 175.277344 243.835938 175.277344 L 245.125 175.277344 C 245.234375 175.277344 245.324219 175.363281 245.324219 175.472656 L 245.324219 176.089844 C 245.324219 176.199219 245.234375 176.289062 245.125 176.289062 Z M 245.125 176.289062 "/>
<path style=" stroke:none;fill-rule:nonzero;fill:rgb(24.705882%,23.921569%,33.72549%);fill-opacity:1;" d="M 241.761719 176.289062 L 240.472656 176.289062 C 240.363281 176.289062 240.277344 176.199219 240.277344 176.089844 L 240.277344 175.472656 C 240.277344 175.363281 240.363281 175.277344 240.472656 175.277344 L 241.761719 175.277344 C 241.871094 175.277344 241.957031 175.363281 241.957031 175.472656 L 241.957031 176.089844 C 241.957031 176.199219 241.871094 176.289062 241.761719 176.289062 Z M 241.761719 176.289062 "/>
<path style=" stroke:none;fill-rule:nonzero;fill:rgb(24.705882%,23.921569%,33.72549%);fill-opacity:1;" d="M 238.398438 176.289062 L 237.109375 176.289062 C 237 176.289062 236.914062 176.199219 236.914062 176.089844 L 236.914062 175.472656 C 236.914062 175.363281 237 175.277344 237.109375 175.277344 L 238.398438 175.277344 C 238.507812 175.277344 238.59375 175.363281 238.59375 175.472656 L 238.59375 176.089844 C 238.59375 176.199219 238.507812 176.289062 238.398438 176.289062 Z M 238.398438 176.289062 "/>
<path style=" stroke:none;fill-rule:nonzero;fill:rgb(24.705882%,23.921569%,33.72549%);fill-opacity:1;" d="M 235.035156 176.289062 L 233.746094 176.289062 C 233.636719 176.289062 233.550781 176.199219 233.550781 176.089844 L 233.550781 175.472656 C 233.550781 175.363281 233.636719 175.277344 233.746094 175.277344 L 235.035156 175.277344 C 235.144531 175.277344 235.230469 175.363281 235.230469 175.472656 L 235.230469 176.089844 C 235.230469 176.199219 235.144531 176.289062 235.035156 176.289062 Z M 235.035156 176.289062 "/>
<path style=" stroke:none;fill-rule:nonzero;fill:rgb(24.705882%,23.921569%,33.72549%);fill-opacity:1;" d="M 231.671875 176.289062 L 230.382812 176.289062 C 230.273438 176.289062 230.1875 176.199219 230.1875 176.089844 L 230.1875 175.472656 C 230.1875 175.363281 230.273438 175.277344 230.382812 175.277344 L 231.671875 175.277344 C 231.78125 175.277344 231.867188 175.363281 231.867188 175.472656 L 231.867188 176.089844 C 231.867188 176.199219 231.78125 176.289062 231.671875 176.289062 Z M 231.671875 176.289062 "/>
<path style=" stroke:none;fill-rule:nonzero;fill:rgb(24.705882%,23.921569%,33.72549%);fill-opacity:1;" d="M 228.308594 176.289062 L 227.019531 176.289062 C 226.910156 176.289062 226.824219 176.199219 226.824219 176.089844 L 226.824219 175.472656 C 226.824219 175.363281 226.910156 175.277344 227.019531 175.277344 L 228.308594 175.277344 C 228.417969 175.277344 228.503906 175.363281 228.503906 175.472656 L 228.503906 176.089844 C 228.503906 176.199219 228.417969 176.289062 228.308594 176.289062 Z M 228.308594 176.289062 "/>
<path style=" stroke:none;fill-rule:nonzero;fill:rgb(24.705882%,23.921569%,33.72549%);fill-opacity:1;" d="M 224.945312 176.289062 L 223.65625 176.289062 C 223.546875 176.289062 223.460938 176.199219 223.460938 176.089844 L 223.460938 175.472656 C 223.460938 175.363281 223.546875 175.277344 223.65625 175.277344 L 224.945312 175.277344 C 225.054688 175.277344 225.140625 175.363281 225.140625 175.472656 L 225.140625 176.089844 C 225.140625 176.199219 225.054688 176.289062 224.945312 176.289062 Z M 224.945312 176.289062 "/>
<path style=" stroke:none;fill-rule:nonzero;fill:rgb(24.705882%,23.921569%,33.72549%);fill-opacity:1;" d="M 221.582031 176.289062 L 220.292969 176.289062 C 220.183594 176.289062 220.097656 176.199219 220.097656 176.089844 L 220.097656 175.472656 C 220.097656 175.363281 220.183594 175.277344 220.292969 175.277344 L 221.582031 175.277344 C 221.691406 175.277344 221.777344 175.363281 221.777344 175.472656 L 221.777344 176.089844 C 221.777344 176.199219 221.691406 176.289062 221.582031 176.289062 Z M 221.582031 176.289062 "/>
<path style=" stroke:none;fill-rule:nonzero;fill:rgb(24.705882%,23.921569%,33.72549%);fill-opacity:1;" d="M 218.21875 176.289062 L 216.929688 176.289062 C 216.820312 176.289062 216.730469 176.199219 216.730469 176.089844 L 216.730469 175.472656 C 216.730469 175.363281 216.820312 175.277344 216.929688 175.277344 L 218.21875 175.277344 C 218.328125 175.277344 218.414062 175.363281 218.414062 175.472656 L 218.414062 176.089844 C 218.414062 176.199219 218.328125 176.289062 218.21875 176.289062 Z M 218.21875 176.289062 "/>
<path style=" stroke:none;fill-rule:nonzero;fill:rgb(24.705882%,23.921569%,33.72549%);fill-opacity:1;" d="M 214.855469 176.289062 L 213.566406 176.289062 C 213.457031 176.289062 213.367188 176.199219 213.367188 176.089844 L 213.367188 175.472656 C 213.367188 175.363281 213.457031 175.277344 213.566406 175.277344 L 214.855469 175.277344 C 214.960938 175.277344 215.050781 175.363281 215.050781 175.472656 L 215.050781 176.089844 C 215.050781 176.199219 214.960938 176.289062 214.855469 176.289062 Z M 214.855469 176.289062 "/>
<path style=" stroke:none;fill-rule:nonzero;fill:rgb(24.705882%,23.921569%,33.72549%);fill-opacity:1;" d="M 211.492188 176.289062 L 210.199219 176.289062 C 210.09375 176.289062 210.003906 176.199219 210.003906 176.089844 L 210.003906 175.472656 C 210.003906 175.363281 210.09375 175.277344 210.199219 175.277344 L 211.492188 175.277344 C 211.597656 175.277344 211.6875 175.363281 211.6875 175.472656 L 211.6875 176.089844 C 211.6875 176.199219 211.597656 176.289062 211.492188 176.289062 Z M 211.492188 176.289062 "/>
<path style=" stroke:none;fill-rule:nonzero;fill:rgb(24.705882%,23.921569%,33.72549%);fill-opacity:1;" d="M 208.128906 176.289062 L 206.835938 176.289062 C 206.730469 176.289062 206.640625 176.199219 206.640625 176.089844 L 206.640625 175.472656 C 206.640625 175.363281 206.730469 175.277344 206.835938 175.277344 L 208.128906 175.277344 C 208.234375 175.277344 208.324219 175.363281 208.324219 175.472656 L 208.324219 176.089844 C 208.324219 176.199219 208.234375 176.289062 208.128906 176.289062 Z M 208.128906 176.289062 "/>
<path style=" stroke:none;fill-rule:nonzero;fill:rgb(24.705882%,23.921569%,33.72549%);fill-opacity:1;" d="M 204.765625 176.289062 L 203.472656 176.289062 C 203.367188 176.289062 203.277344 176.199219 203.277344 176.089844 L 203.277344 175.472656 C 203.277344 175.363281 203.367188 175.277344 203.472656 175.277344 L 204.765625 175.277344 C 204.871094 175.277344 204.960938 175.363281 204.960938 175.472656 L 204.960938 176.089844 C 204.960938 176.199219 204.871094 176.289062 204.765625 176.289062 Z M 204.765625 176.289062 "/>
<path style=" stroke:none;fill-rule:nonzero;fill:rgb(24.705882%,23.921569%,33.72549%);fill-opacity:1;" d="M 201.398438 176.289062 L 200.109375 176.289062 C 200.003906 176.289062 199.914062 176.199219 199.914062 176.089844 L 199.914062 175.472656 C 199.914062 175.363281 200.003906 175.277344 200.109375 175.277344 L 201.398438 175.277344 C 201.507812 175.277344 201.597656 175.363281 201.597656 175.472656 L 201.597656 176.089844 C 201.597656 176.199219 201.507812 176.289062 201.398438 176.289062 Z M 201.398438 176.289062 "/>
<path style=" stroke:none;fill-rule:nonzero;fill:rgb(24.705882%,23.921569%,33.72549%);fill-opacity:1;" d="M 235.707031 178.308594 L 222.644531 178.308594 C 222.539062 178.308594 222.449219 178.21875 222.449219 178.113281 L 222.449219 177.492188 C 222.449219 177.386719 222.539062 177.296875 222.644531 177.296875 L 235.707031 177.296875 C 235.816406 177.296875 235.90625 177.386719 235.90625 177.492188 L 235.90625 178.113281 C 235.90625 178.21875 235.816406 178.308594 235.707031 178.308594 Z M 235.707031 178.308594 "/>
<path style=" stroke:none;fill-rule:nonzero;fill:rgb(100%,100%,100%);fill-opacity:1;" d="M 207.664062 144.246094 L 208.808594 144.246094 C 209.152344 144.246094 209.433594 144.527344 209.433594 144.875 C 209.433594 145.222656 209.152344 145.503906 208.808594 145.503906 L 207.664062 145.503906 C 207.320312 145.503906 207.039062 145.222656 207.039062 144.875 C 207.039062 144.527344 207.320312 144.246094 207.664062 144.246094 Z M 207.664062 144.246094 "/>
<path style=" stroke:none;fill-rule:nonzero;fill:rgb(100%,100%,100%);fill-opacity:1;" d="M 220.722656 144.246094 L 221.867188 144.246094 C 222.210938 144.246094 222.492188 144.527344 222.492188 144.875 C 222.492188 145.222656 222.210938 145.503906 221.867188 145.503906 L 220.722656 145.503906 C 220.378906 145.503906 220.097656 145.222656 220.097656 144.875 C 220.097656 144.527344 220.378906 144.246094 220.722656 144.246094 Z M 220.722656 144.246094 "/>
<path style=" stroke:none;fill-rule:nonzero;fill:rgb(100%,100%,100%);fill-opacity:1;" d="M 224.425781 144.246094 L 225.566406 144.246094 C 225.914062 144.246094 226.191406 144.527344 226.191406 144.875 C 226.191406 145.222656 225.914062 145.503906 225.566406 145.503906 L 224.425781 145.503906 C 224.078125 145.503906 223.796875 145.222656 223.796875 144.875 C 223.796875 144.527344 224.078125 144.246094 224.425781 144.246094 Z M 224.425781 144.246094 "/>
<path style=" stroke:none;fill-rule:nonzero;fill:rgb(100%,100%,100%);fill-opacity:1;" d="M 211.21875 144.144531 L 218.3125 144.144531 C 218.660156 144.144531 218.941406 144.421875 218.941406 144.769531 C 218.941406 145.117188 218.660156 145.398438 218.3125 145.398438 L 211.21875 145.398438 C 210.871094 145.398438 210.589844 145.117188 210.589844 144.769531 C 210.589844 144.421875 210.871094 144.144531 211.21875 144.144531 Z M 211.21875 144.144531 "/>
<path style=" stroke:none;fill-rule:nonzero;fill:rgb(100%,100%,100%);fill-opacity:1;" d="M 228.628906 144.144531 L 235.726562 144.144531 C 236.070312 144.144531 236.351562 144.421875 236.351562 144.769531 C 236.351562 145.117188 236.070312 145.398438 235.726562 145.398438 L 228.628906 145.398438 C 228.28125 145.398438 228.003906 145.117188 228.003906 144.769531 C 228.003906 144.421875 228.28125 144.144531 228.628906 144.144531 Z M 228.628906 144.144531 "/>
<path style=" stroke:none;fill-rule:nonzero;fill:rgb(100%,100%,100%);fill-opacity:1;" d="M 211.148438 147.082031 L 212.289062 147.082031 C 212.636719 147.082031 212.917969 147.363281 212.917969 147.707031 C 212.917969 148.054688 212.636719 148.335938 212.289062 148.335938 L 211.148438 148.335938 C 210.800781 148.335938 210.519531 148.054688 210.519531 147.707031 C 210.519531 147.363281 210.800781 147.082031 211.148438 147.082031 Z M 211.148438 147.082031 "/>
<path style=" stroke:none;fill-rule:nonzero;fill:rgb(100%,100%,100%);fill-opacity:1;" d="M 224.207031 147.082031 L 225.347656 147.082031 C 225.695312 147.082031 225.976562 147.363281 225.976562 147.707031 C 225.976562 148.054688 225.695312 148.335938 225.347656 148.335938 L 224.207031 148.335938 C 223.859375 148.335938 223.578125 148.054688 223.578125 147.707031 C 223.578125 147.363281 223.859375 147.082031 224.207031 147.082031 Z M 224.207031 147.082031 "/>
<path style=" stroke:none;fill-rule:nonzero;fill:rgb(100%,100%,100%);fill-opacity:1;" d="M 227.90625 147.082031 L 229.046875 147.082031 C 229.394531 147.082031 229.675781 147.363281 229.675781 147.707031 C 229.675781 148.054688 229.394531 148.335938 229.046875 148.335938 L 227.90625 148.335938 C 227.558594 148.335938 227.28125 148.054688 227.28125 147.707031 C 227.28125 147.363281 227.558594 147.082031 227.90625 147.082031 Z M 227.90625 147.082031 "/>
<path style=" stroke:none;fill-rule:nonzero;fill:rgb(100%,100%,100%);fill-opacity:1;" d="M 214.699219 146.976562 L 221.796875 146.976562 C 222.140625 146.976562 222.421875 147.257812 222.421875 147.605469 C 222.421875 147.949219 222.140625 148.230469 221.796875 148.230469 L 214.699219 148.230469 C 214.355469 148.230469 214.074219 147.949219 214.074219 147.605469 C 214.074219 147.257812 214.355469 146.976562 214.699219 146.976562 Z M 214.699219 146.976562 "/>
<path style=" stroke:none;fill-rule:nonzero;fill:rgb(100%,100%,100%);fill-opacity:1;" d="M 232.113281 146.976562 L 239.207031 146.976562 C 239.554688 146.976562 239.835938 147.257812 239.835938 147.605469 C 239.835938 147.949219 239.554688 148.230469 239.207031 148.230469 L 232.113281 148.230469 C 231.765625 148.230469 231.484375 147.949219 231.484375 147.605469 C 231.484375 147.257812 231.765625 146.976562 232.113281 146.976562 Z M 232.113281 146.976562 "/>
<path style=" stroke:none;fill-rule:nonzero;fill:rgb(100%,100%,100%);fill-opacity:1;" d="M 214.628906 149.914062 L 215.773438 149.914062 C 216.117188 149.914062 216.398438 150.195312 216.398438 150.542969 C 216.398438 150.890625 216.117188 151.167969 215.773438 151.167969 L 214.628906 151.167969 C 214.285156 151.167969 214.003906 150.890625 214.003906 150.542969 C 214.003906 150.195312 214.285156 149.914062 214.628906 149.914062 Z M 214.628906 149.914062 "/>
<path style=" stroke:none;fill-rule:nonzero;fill:rgb(100%,100%,100%);fill-opacity:1;" d="M 227.6875 149.914062 L 228.832031 149.914062 C 229.175781 149.914062 229.457031 150.195312 229.457031 150.542969 C 229.457031 150.890625 229.175781 151.167969 228.832031 151.167969 L 227.6875 151.167969 C 227.34375 151.167969 227.0625 150.890625 227.0625 150.542969 C 227.0625 150.195312 227.34375 149.914062 227.6875 149.914062 Z M 227.6875 149.914062 "/>
<path style=" stroke:none;fill-rule:nonzero;fill:rgb(100%,100%,100%);fill-opacity:1;" d="M 231.390625 149.914062 L 232.53125 149.914062 C 232.875 149.914062 233.15625 150.195312 233.15625 150.542969 C 233.15625 150.890625 232.875 151.167969 232.53125 151.167969 L 231.390625 151.167969 C 231.042969 151.167969 230.761719 150.890625 230.761719 150.542969 C 230.761719 150.195312 231.042969 149.914062 231.390625 149.914062 Z M 231.390625 149.914062 "/>
<path style=" stroke:none;fill-rule:nonzero;fill:rgb(100%,100%,100%);fill-opacity:1;" d="M 218.183594 149.808594 L 225.277344 149.808594 C 225.625 149.808594 225.90625 150.089844 225.90625 150.4375 C 225.90625 150.785156 225.625 151.066406 225.277344 151.066406 L 218.183594 151.066406 C 217.835938 151.066406 217.554688 150.785156 217.554688 150.4375 C 217.554688 150.089844 217.835938 149.808594 218.183594 149.808594 Z M 218.183594 149.808594 "/>
<path style=" stroke:none;fill-rule:nonzero;fill:rgb(100%,100%,100%);fill-opacity:1;" d="M 235.59375 149.808594 L 242.691406 149.808594 C 243.035156 149.808594 243.316406 150.089844 243.316406 150.4375 C 243.316406 150.785156 243.035156 151.066406 242.691406 151.066406 L 235.59375 151.066406 C 235.246094 151.066406 234.96875 150.785156 234.96875 150.4375 C 234.96875 150.089844 235.246094 149.808594 235.59375 149.808594 Z M 235.59375 149.808594 "/>
<path style=" stroke:none;fill-rule:nonzero;fill:rgb(100%,100%,100%);fill-opacity:1;" d="M 218.113281 152.746094 L 219.253906 152.746094 C 219.601562 152.746094 219.882812 153.027344 219.882812 153.375 C 219.882812 153.722656 219.601562 154.003906 219.253906 154.003906 L 218.113281 154.003906 C 217.765625 154.003906 217.484375 153.722656 217.484375 153.375 C 217.484375 153.027344 217.765625 152.746094 218.113281 152.746094 Z M 218.113281 152.746094 "/>
<path style=" stroke:none;fill-rule:nonzero;fill:rgb(100%,100%,100%);fill-opacity:1;" d="M 231.171875 152.746094 L 232.3125 152.746094 C 232.660156 152.746094 232.941406 153.027344 232.941406 153.375 C 232.941406 153.722656 232.660156 154.003906 232.3125 154.003906 L 231.171875 154.003906 C 230.824219 154.003906 230.542969 153.722656 230.542969 153.375 C 230.542969 153.027344 230.824219 152.746094 231.171875 152.746094 Z M 231.171875 152.746094 "/>
<path style=" stroke:none;fill-rule:nonzero;fill:rgb(100%,100%,100%);fill-opacity:1;" d="M 234.871094 152.746094 L 236.011719 152.746094 C 236.359375 152.746094 236.640625 153.027344 236.640625 153.375 C 236.640625 153.722656 236.359375 154.003906 236.011719 154.003906 L 234.871094 154.003906 C 234.523438 154.003906 234.246094 153.722656 234.246094 153.375 C 234.246094 153.027344 234.523438 152.746094 234.871094 152.746094 Z M 234.871094 152.746094 "/>
<path style=" stroke:none;fill-rule:nonzero;fill:rgb(100%,100%,100%);fill-opacity:1;" d="M 221.664062 152.644531 L 228.761719 152.644531 C 229.105469 152.644531 229.386719 152.925781 229.386719 153.269531 C 229.386719 153.617188 229.105469 153.898438 228.761719 153.898438 L 221.664062 153.898438 C 221.316406 153.898438 221.039062 153.617188 221.039062 153.269531 C 221.039062 152.925781 221.316406 152.644531 221.664062 152.644531 Z M 221.664062 152.644531 "/>
<path style=" stroke:none;fill-rule:nonzero;fill:rgb(100%,100%,100%);fill-opacity:1;" d="M 220.722656 164.015625 L 221.867188 164.015625 C 222.210938 164.015625 222.492188 164.296875 222.492188 164.640625 C 222.492188 164.988281 222.210938 165.269531 221.867188 165.269531 L 220.722656 165.269531 C 220.378906 165.269531 220.097656 164.988281 220.097656 164.640625 C 220.097656 164.296875 220.378906 164.015625 220.722656 164.015625 Z M 220.722656 164.015625 "/>
<path style=" stroke:none;fill-rule:nonzero;fill:rgb(100%,100%,100%);fill-opacity:1;" d="M 224.425781 164.015625 L 225.566406 164.015625 C 225.914062 164.015625 226.191406 164.296875 226.191406 164.640625 C 226.191406 164.988281 225.914062 165.269531 225.566406 165.269531 L 224.425781 165.269531 C 224.078125 165.269531 223.796875 164.988281 223.796875 164.640625 C 223.796875 164.296875 224.078125 164.015625 224.425781 164.015625 Z M 224.425781 164.015625 "/>
<path style=" stroke:none;fill-rule:nonzero;fill:rgb(100%,100%,100%);fill-opacity:1;" d="M 228.628906 164.121094 L 235.726562 164.121094 C 236.070312 164.121094 236.351562 164.402344 236.351562 164.746094 C 236.351562 165.09375 236.070312 165.375 235.726562 165.375 L 228.628906 165.375 C 228.28125 165.375 228.003906 165.09375 228.003906 164.746094 C 228.003906 164.402344 228.28125 164.121094 228.628906 164.121094 Z M 228.628906 164.121094 "/>
<path style=" stroke:none;fill-rule:nonzero;fill:rgb(100%,100%,100%);fill-opacity:1;" d="M 207.664062 164.015625 L 208.808594 164.015625 C 209.152344 164.015625 209.433594 164.296875 209.433594 164.640625 C 209.433594 164.988281 209.152344 165.269531 208.808594 165.269531 L 207.664062 165.269531 C 207.320312 165.269531 207.039062 164.988281 207.039062 164.640625 C 207.039062 164.296875 207.320312 164.015625 207.664062 164.015625 Z M 207.664062 164.015625 "/>
<path style=" stroke:none;fill-rule:nonzero;fill:rgb(100%,100%,100%);fill-opacity:1;" d="M 211.21875 164.121094 L 218.3125 164.121094 C 218.660156 164.121094 218.941406 164.402344 218.941406 164.746094 C 218.941406 165.09375 218.660156 165.375 218.3125 165.375 L 211.21875 165.375 C 210.871094 165.375 210.589844 165.09375 210.589844 164.746094 C 210.589844 164.402344 210.871094 164.121094 211.21875 164.121094 Z M 211.21875 164.121094 "/>
<path style=" stroke:none;fill-rule:nonzero;fill:rgb(100%,100%,100%);fill-opacity:1;" d="M 211.148438 161.179688 L 212.289062 161.179688 C 212.636719 161.179688 212.917969 161.460938 212.917969 161.808594 C 212.917969 162.15625 212.636719 162.4375 212.289062 162.4375 L 211.148438 162.4375 C 210.800781 162.4375 210.519531 162.15625 210.519531 161.808594 C 210.519531 161.460938 210.800781 161.179688 211.148438 161.179688 Z M 211.148438 161.179688 "/>
<path style=" stroke:none;fill-rule:nonzero;fill:rgb(100%,100%,100%);fill-opacity:1;" d="M 224.207031 161.179688 L 225.347656 161.179688 C 225.695312 161.179688 225.976562 161.460938 225.976562 161.808594 C 225.976562 162.15625 225.695312 162.4375 225.347656 162.4375 L 224.207031 162.4375 C 223.859375 162.4375 223.578125 162.15625 223.578125 161.808594 C 223.578125 161.460938 223.859375 161.179688 224.207031 161.179688 Z M 224.207031 161.179688 "/>
<path style=" stroke:none;fill-rule:nonzero;fill:rgb(100%,100%,100%);fill-opacity:1;" d="M 227.90625 161.179688 L 229.046875 161.179688 C 229.394531 161.179688 229.675781 161.460938 229.675781 161.808594 C 229.675781 162.15625 229.394531 162.4375 229.046875 162.4375 L 227.90625 162.4375 C 227.558594 162.4375 227.28125 162.15625 227.28125 161.808594 C 227.28125 161.460938 227.558594 161.179688 227.90625 161.179688 Z M 227.90625 161.179688 "/>
<path style=" stroke:none;fill-rule:nonzero;fill:rgb(100%,100%,100%);fill-opacity:1;" d="M 214.699219 161.285156 L 221.796875 161.285156 C 222.140625 161.285156 222.421875 161.566406 222.421875 161.914062 C 222.421875 162.261719 222.140625 162.542969 221.796875 162.542969 L 214.699219 162.542969 C 214.355469 162.542969 214.074219 162.261719 214.074219 161.914062 C 214.074219 161.566406 214.355469 161.285156 214.699219 161.285156 Z M 214.699219 161.285156 "/>
<path style=" stroke:none;fill-rule:nonzero;fill:rgb(100%,100%,100%);fill-opacity:1;" d="M 214.628906 158.347656 L 215.773438 158.347656 C 216.117188 158.347656 216.398438 158.628906 216.398438 158.976562 C 216.398438 159.320312 216.117188 159.601562 215.773438 159.601562 L 214.628906 159.601562 C 214.285156 159.601562 214.003906 159.320312 214.003906 158.976562 C 214.003906 158.628906 214.285156 158.347656 214.628906 158.347656 Z M 214.628906 158.347656 "/>
<path style=" stroke:none;fill-rule:nonzero;fill:rgb(100%,100%,100%);fill-opacity:1;" d="M 227.6875 158.347656 L 228.832031 158.347656 C 229.175781 158.347656 229.457031 158.628906 229.457031 158.976562 C 229.457031 159.320312 229.175781 159.601562 228.832031 159.601562 L 227.6875 159.601562 C 227.34375 159.601562 227.0625 159.320312 227.0625 158.976562 C 227.0625 158.628906 227.34375 158.347656 227.6875 158.347656 Z M 227.6875 158.347656 "/>
<path style=" stroke:none;fill-rule:nonzero;fill:rgb(100%,100%,100%);fill-opacity:1;" d="M 231.390625 158.347656 L 232.53125 158.347656 C 232.875 158.347656 233.15625 158.628906 233.15625 158.976562 C 233.15625 159.320312 232.875 159.601562 232.53125 159.601562 L 231.390625 159.601562 C 231.042969 159.601562 230.761719 159.320312 230.761719 158.976562 C 230.761719 158.628906 231.042969 158.347656 231.390625 158.347656 Z M 231.390625 158.347656 "/>
<path style=" stroke:none;fill-rule:nonzero;fill:rgb(100%,100%,100%);fill-opacity:1;" d="M 218.183594 158.453125 L 225.277344 158.453125 C 225.625 158.453125 225.90625 158.734375 225.90625 159.082031 C 225.90625 159.425781 225.625 159.707031 225.277344 159.707031 L 218.183594 159.707031 C 217.835938 159.707031 217.554688 159.425781 217.554688 159.082031 C 217.554688 158.734375 217.835938 158.453125 218.183594 158.453125 Z M 218.183594 158.453125 "/>
<path style=" stroke:none;fill-rule:nonzero;fill:rgb(100%,100%,100%);fill-opacity:1;" d="M 218.113281 155.515625 L 219.253906 155.515625 C 219.601562 155.515625 219.882812 155.796875 219.882812 156.140625 C 219.882812 156.488281 219.601562 156.769531 219.253906 156.769531 L 218.113281 156.769531 C 217.765625 156.769531 217.484375 156.488281 217.484375 156.140625 C 217.484375 155.796875 217.765625 155.515625 218.113281 155.515625 Z M 218.113281 155.515625 "/>
<path style=" stroke:none;fill-rule:nonzero;fill:rgb(100%,100%,100%);fill-opacity:1;" d="M 231.171875 155.515625 L 232.3125 155.515625 C 232.660156 155.515625 232.941406 155.796875 232.941406 156.140625 C 232.941406 156.488281 232.660156 156.769531 232.3125 156.769531 L 231.171875 156.769531 C 230.824219 156.769531 230.542969 156.488281 230.542969 156.140625 C 230.542969 155.796875 230.824219 155.515625 231.171875 155.515625 Z M 231.171875 155.515625 "/>
<path style=" stroke:none;fill-rule:nonzero;fill:rgb(100%,100%,100%);fill-opacity:1;" d="M 234.871094 155.515625 L 236.011719 155.515625 C 236.359375 155.515625 236.640625 155.796875 236.640625 156.140625 C 236.640625 156.488281 236.359375 156.769531 236.011719 156.769531 L 234.871094 156.769531 C 234.523438 156.769531 234.246094 156.488281 234.246094 156.140625 C 234.246094 155.796875 234.523438 155.515625 234.871094 155.515625 Z M 234.871094 155.515625 "/>
<path style=" stroke:none;fill-rule:nonzero;fill:rgb(100%,100%,100%);fill-opacity:1;" d="M 221.664062 155.617188 L 228.761719 155.617188 C 229.105469 155.617188 229.386719 155.898438 229.386719 156.246094 C 229.386719 156.59375 229.105469 156.875 228.761719 156.875 L 221.664062 156.875 C 221.316406 156.875 221.039062 156.59375 221.039062 156.246094 C 221.039062 155.898438 221.316406 155.617188 221.664062 155.617188 Z M 221.664062 155.617188 "/>
<path style=" stroke:none;fill-rule:nonzero;fill:rgb(100%,71.372549%,71.372549%);fill-opacity:1;" d="M 202.738281 197.222656 L 197.375 188.738281 L 214.203125 175.304688 L 221.144531 167.601562 C 222.980469 165.5625 225.761719 164.660156 228.441406 165.222656 C 231.125 165.789062 233.304688 167.742188 234.164062 170.347656 C 235.464844 174.289062 233.410156 178.558594 229.515625 179.992188 L 218.535156 184.042969 Z M 202.738281 197.222656 "/>
<path style=" stroke:none;fill-rule:nonzero;fill:rgb(18.431373%,18.039216%,25.490196%);fill-opacity:1;" d="M 76.96875 135.699219 L 76.96875 176.941406 L 105.816406 176.941406 L 105.816406 135.699219 C 105.820312 135.089844 105.421875 134.554688 104.84375 134.375 C 104.707031 134.328125 104.570312 134.308594 104.429688 134.308594 L 78.363281 134.308594 C 77.59375 134.308594 76.96875 134.929688 76.96875 135.699219 Z M 88.226562 149.871094 C 88.242188 148.179688 89.617188 146.816406 91.308594 146.816406 C 92.996094 146.816406 94.371094 148.179688 94.386719 149.871094 L 94.386719 154.65625 C 94.378906 156.351562 93 157.722656 91.308594 157.722656 C 89.613281 157.722656 88.234375 156.351562 88.226562 154.65625 Z M 88.226562 149.871094 "/>
<path style=" stroke:none;fill-rule:nonzero;fill:rgb(24.705882%,23.921569%,33.72549%);fill-opacity:1;" d="M 76.878906 175.621094 L 76.878906 179.597656 C 76.882812 180.027344 77.226562 180.375 77.65625 180.378906 L 105.132812 180.378906 C 105.558594 180.375 105.90625 180.027344 105.90625 179.597656 L 105.90625 175.621094 Z M 76.878906 175.621094 "/>
<path style=" stroke:none;fill-rule:nonzero;fill:rgb(24.705882%,23.921569%,33.72549%);fill-opacity:1;" d="M 31.582031 73.566406 L 31.582031 148.863281 C 31.585938 150.863281 33.203125 152.480469 35.199219 152.484375 L 146.621094 152.484375 C 148.617188 152.480469 150.234375 150.863281 150.234375 148.863281 L 150.234375 73.566406 C 150.230469 71.570312 148.613281 69.957031 146.621094 69.953125 L 35.199219 69.953125 C 33.203125 69.957031 31.589844 71.570312 31.582031 73.566406 Z M 31.582031 73.566406 "/>
<path style=" stroke:none;fill-rule:nonzero;fill:rgb(100%,100%,100%);fill-opacity:1;" d="M 34.199219 74.503906 L 34.199219 147.9375 C 34.199219 149.003906 35.0625 149.867188 36.128906 149.871094 L 145.691406 149.871094 C 146.757812 149.867188 147.621094 149.003906 147.625 147.9375 L 147.625 74.503906 C 147.625 73.4375 146.761719 72.570312 145.691406 72.566406 L 36.128906 72.566406 C 35.0625 72.570312 34.199219 73.4375 34.199219 74.503906 Z M 34.199219 74.503906 "/>
<path style=" stroke:none;fill-rule:nonzero;fill:rgb(18.431373%,18.039216%,25.490196%);fill-opacity:1;" d="M 54.53125 180.109375 C 54.757812 180.390625 55.101562 180.554688 55.460938 180.554688 L 120.644531 180.554688 C 121.007812 180.554688 121.347656 180.390625 121.578125 180.109375 C 121.804688 179.828125 121.894531 179.460938 121.820312 179.105469 L 120.808594 174.292969 C 120.722656 173.894531 120.441406 173.566406 120.058594 173.421875 C 119.925781 173.367188 119.78125 173.339844 119.632812 173.339844 L 56.46875 173.339844 C 56.324219 173.339844 56.179688 173.367188 56.042969 173.421875 C 55.664062 173.566406 55.382812 173.894531 55.296875 174.292969 L 54.285156 179.105469 C 54.214844 179.460938 54.304688 179.828125 54.53125 180.109375 Z M 54.53125 180.109375 "/>
<path style=" stroke:none;fill-rule:nonzero;fill:rgb(24.705882%,23.921569%,33.72549%);fill-opacity:1;" d="M 142.136719 82.683594 L 39.617188 82.683594 C 39.398438 82.675781 39.21875 82.496094 39.21875 82.273438 C 39.21875 82.050781 39.398438 81.871094 39.617188 81.867188 L 142.136719 81.867188 C 142.359375 81.871094 142.535156 82.050781 142.535156 82.273438 C 142.535156 82.496094 142.359375 82.675781 142.136719 82.683594 Z M 142.136719 82.683594 "/>
<path style=" stroke:none;fill-rule:nonzero;fill:rgb(24.705882%,23.921569%,33.72549%);fill-opacity:1;" d="M 48.988281 77.335938 C 48.988281 75.984375 47.917969 74.890625 46.597656 74.890625 C 45.277344 74.890625 44.207031 75.984375 44.207031 77.335938 C 44.207031 78.6875 45.277344 79.78125 46.597656 79.78125 C 47.917969 79.78125 48.988281 78.6875 48.988281 77.335938 Z M 48.988281 77.335938 "/>
<path style=" stroke:none;fill-rule:nonzero;fill:rgb(24.705882%,23.921569%,33.72549%);fill-opacity:1;" d="M 57.242188 77.335938 C 57.242188 75.984375 56.171875 74.890625 54.851562 74.890625 C 53.53125 74.890625 52.460938 75.984375 52.460938 77.335938 C 52.460938 78.6875 53.53125 79.78125 54.851562 79.78125 C 56.171875 79.78125 57.242188 78.6875 57.242188 77.335938 Z M 57.242188 77.335938 "/>
<path style=" stroke:none;fill-rule:nonzero;fill:rgb(24.705882%,23.921569%,33.72549%);fill-opacity:1;" d="M 65.496094 77.335938 C 65.496094 75.984375 64.425781 74.890625 63.105469 74.890625 C 61.785156 74.890625 60.714844 75.984375 60.714844 77.335938 C 60.714844 78.6875 61.785156 79.78125 63.105469 79.78125 C 64.425781 79.78125 65.496094 78.6875 65.496094 77.335938 Z M 65.496094 77.335938 "/>
<path style=" stroke:none;fill-rule:nonzero;fill:rgb(24.705882%,23.921569%,33.72549%);fill-opacity:1;" d="M 137.167969 75.496094 L 131.304688 75.496094 C 131.0625 75.5 130.871094 75.695312 130.871094 75.9375 C 130.871094 76.179688 131.0625 76.378906 131.304688 76.382812 L 137.167969 76.382812 C 137.410156 76.378906 137.605469 76.179688 137.605469 75.9375 C 137.605469 75.695312 137.410156 75.496094 137.167969 75.496094 Z M 137.167969 75.496094 "/>
<path style=" stroke:none;fill-rule:nonzero;fill:rgb(24.705882%,23.921569%,33.72549%);fill-opacity:1;" d="M 137.167969 77.164062 L 131.304688 77.164062 C 131.0625 77.167969 130.871094 77.367188 130.871094 77.605469 C 130.871094 77.847656 131.0625 78.046875 131.304688 78.050781 L 137.167969 78.050781 C 137.410156 78.046875 137.605469 77.851562 137.605469 77.605469 C 137.605469 77.363281 137.410156 77.164062 137.167969 77.164062 Z M 137.167969 77.164062 "/>
<path style=" stroke:none;fill-rule:nonzero;fill:rgb(24.705882%,23.921569%,33.72549%);fill-opacity:1;" d="M 137.167969 78.832031 L 131.304688 78.832031 C 131.0625 78.835938 130.871094 79.035156 130.871094 79.277344 C 130.871094 79.515625 131.0625 79.714844 131.304688 79.71875 L 137.167969 79.71875 C 137.410156 79.71875 137.605469 79.519531 137.605469 79.277344 C 137.605469 79.03125 137.410156 78.835938 137.167969 78.832031 Z M 137.167969 78.832031 "/>
<path style=" stroke:none;fill-rule:nonzero;fill:rgb(18.431373%,18.039216%,25.490196%);fill-opacity:1;" d="M 278.496094 177.367188 C 278.859375 178.425781 279.863281 179.128906 280.980469 179.105469 L 291.617188 178.832031 C 292.742188 178.8125 293.71875 178.050781 294.015625 176.960938 L 295.523438 160.839844 C 296.054688 161.082031 296.636719 161.203125 297.222656 161.191406 C 299.367188 161.136719 301.058594 159.355469 301.003906 157.210938 C 300.949219 155.066406 299.171875 153.371094 297.03125 153.425781 C 296.796875 153.425781 296.5625 153.449219 296.332031 153.496094 C 295.828125 152.953125 295.117188 152.644531 294.375 152.652344 L 278.011719 153.074219 C 277.878906 153.078125 277.742188 153.097656 277.609375 153.125 C 276.882812 153.261719 276.25 153.703125 275.875 154.339844 C 275.5 154.976562 275.417969 155.746094 275.652344 156.449219 Z M 295.832031 159.746094 L 296.902344 155.90625 C 297.023438 155.460938 297.027344 154.996094 296.910156 154.550781 C 296.960938 154.550781 297.007812 154.523438 297.058594 154.523438 C 298.589844 154.492188 299.855469 155.707031 299.890625 157.238281 C 299.925781 158.769531 298.71875 160.039062 297.191406 160.082031 C 296.714844 160.09375 296.246094 159.980469 295.832031 159.746094 Z M 295.832031 159.746094 "/>
<path style=" stroke:none;fill-rule:nonzero;fill:rgb(24.705882%,23.921569%,33.72549%);fill-opacity:1;" d="M 277.609375 153.125 C 277.957031 155.121094 281.878906 156.523438 286.589844 156.28125 C 290.921875 156.082031 294.464844 154.554688 295.117188 152.75 C 294.875 152.679688 294.625 152.644531 294.375 152.652344 L 278.011719 153.074219 C 277.878906 153.078125 277.742188 153.097656 277.609375 153.125 Z M 277.609375 153.125 "/>
<path style=" stroke:none;fill-rule:nonzero;fill:rgb(42.352941%,38.823529%,100%);fill-opacity:1;" d="M 287.453125 168.507812 C 287.476562 168.503906 287.496094 168.492188 287.515625 168.480469 L 289.824219 166.96875 C 289.878906 166.929688 289.914062 166.867188 289.914062 166.800781 C 289.914062 166.730469 289.878906 166.667969 289.824219 166.632812 L 287.421875 165.054688 C 287.363281 165.015625 287.285156 165.011719 287.222656 165.042969 C 287.15625 165.078125 287.117188 165.140625 287.113281 165.210938 C 287.109375 165.285156 287.144531 165.351562 287.203125 165.390625 L 289.347656 166.800781 L 287.292969 168.144531 C 287.210938 168.199219 287.179688 168.304688 287.21875 168.394531 C 287.257812 168.484375 287.359375 168.53125 287.453125 168.507812 Z M 287.453125 168.507812 "/>
<path style=" stroke:none;fill-rule:nonzero;fill:rgb(42.352941%,38.823529%,100%);fill-opacity:1;" d="M 283.804688 168.675781 C 283.882812 168.65625 283.941406 168.589844 283.953125 168.507812 C 283.964844 168.429688 283.925781 168.347656 283.855469 168.308594 L 281.726562 167.085938 L 283.785156 165.554688 C 283.875 165.488281 283.890625 165.363281 283.824219 165.273438 C 283.757812 165.183594 283.632812 165.164062 283.542969 165.230469 L 281.242188 166.945312 C 281.1875 166.984375 281.15625 167.050781 281.160156 167.117188 C 281.164062 167.1875 281.203125 167.246094 281.261719 167.28125 L 283.65625 168.65625 C 283.699219 168.683594 283.753906 168.691406 283.804688 168.675781 Z M 283.804688 168.675781 "/>
<path style=" stroke:none;fill-rule:nonzero;fill:rgb(42.352941%,38.823529%,100%);fill-opacity:1;" d="M 287.222656 169.835938 C 287.242188 169.832031 287.261719 169.824219 287.277344 169.8125 C 287.324219 169.785156 287.355469 169.738281 287.371094 169.6875 C 287.382812 169.636719 287.375 169.582031 287.347656 169.535156 L 284.070312 164.144531 C 284.011719 164.050781 283.890625 164.019531 283.796875 164.078125 C 283.699219 164.136719 283.671875 164.257812 283.726562 164.355469 L 287.003906 169.746094 C 287.046875 169.820312 287.136719 169.855469 287.222656 169.835938 Z M 287.222656 169.835938 "/>
<path style=" stroke:none;fill-rule:nonzero;fill:rgb(42.352941%,38.823529%,100%);fill-opacity:1;" d="M 85.382812 104.878906 L 103.128906 104.878906 C 103.851562 104.878906 104.4375 105.464844 104.4375 106.191406 L 104.4375 107.925781 C 104.4375 108.652344 103.851562 109.238281 103.128906 109.238281 L 85.382812 109.238281 C 84.660156 109.238281 84.074219 108.652344 84.074219 107.925781 L 84.074219 106.191406 C 84.074219 105.464844 84.660156 104.878906 85.382812 104.878906 Z M 85.382812 104.878906 "/>
<path style=" stroke:none;fill-rule:nonzero;fill:rgb(90.196078%,90.196078%,90.196078%);fill-opacity:1;" d="M 75.042969 113.601562 L 113.46875 113.601562 C 114.195312 113.601562 114.78125 114.1875 114.78125 114.914062 L 114.78125 116.648438 C 114.78125 117.375 114.195312 117.960938 113.46875 117.960938 L 75.042969 117.960938 C 74.316406 117.960938 73.730469 117.375 73.730469 116.648438 L 73.730469 114.914062 C 73.730469 114.1875 74.316406 113.601562 75.042969 113.601562 Z M 75.042969 113.601562 "/>
<path style=" stroke:none;fill-rule:nonzero;fill:rgb(90.196078%,90.196078%,90.196078%);fill-opacity:1;" d="M 75.042969 122.320312 L 113.46875 122.320312 C 114.195312 122.320312 114.78125 122.910156 114.78125 123.632812 L 114.78125 125.371094 C 114.78125 126.09375 114.195312 126.683594 113.46875 126.683594 L 75.042969 126.683594 C 74.316406 126.683594 73.730469 126.09375 73.730469 125.371094 L 73.730469 123.632812 C 73.730469 122.910156 74.316406 122.320312 75.042969 122.320312 Z M 75.042969 122.320312 "/>
<path style=" stroke:none;fill-rule:nonzero;fill:rgb(24.705882%,23.921569%,33.72549%);fill-opacity:1;" d="M 116.726562 151.527344 L 116.816406 151.804688 L 116.820312 151.8125 L 119.4375 159.789062 L 122.453125 168.984375 L 128.125 186.257812 L 128.179688 188.941406 L 128.179688 188.949219 L 128.601562 210.535156 L 127.433594 213.460938 L 128.746094 218.261719 C 128.746094 218.261719 128.140625 211.007812 124.898438 215.171875 C 123.0625 217.539062 120.914062 219.960938 119.152344 222.230469 C 121.71875 223.273438 124.332031 224.214844 126.984375 225.058594 C 127.554688 225.242188 128.132812 225.414062 128.710938 225.589844 C 128.832031 225.625 128.957031 225.664062 129.082031 225.699219 C 137.871094 228.304688 146.960938 229.765625 156.125 230.054688 C 156.601562 230.066406 157.066406 230.074219 157.519531 230.085938 C 157.683594 230.089844 157.835938 230.09375 157.992188 230.09375 C 158.507812 230.097656 159.015625 230.105469 159.527344 230.105469 C 160.5625 230.105469 161.59375 230.089844 162.621094 230.058594 C 170.214844 229.84375 177.761719 228.820312 185.140625 227.007812 C 185.089844 223.957031 184.953125 220.394531 184.757812 216.585938 C 184.664062 214.71875 182.609375 212.695312 182.484375 210.742188 C 182.398438 209.273438 184.242188 207.894531 184.148438 206.402344 C 183.523438 197.222656 182.746094 200.746094 182.167969 194.246094 C 182.109375 193.609375 182.054688 193 182.003906 192.417969 C 181.632812 188.242188 181.375 185.632812 181.375 185.632812 L 183.839844 170.078125 L 187.710938 145.65625 L 187.414062 145.167969 L 187.078125 145 L 166.664062 134.882812 L 165.554688 132.039062 C 164.894531 130.363281 163.28125 129.257812 161.484375 129.246094 L 148.035156 129.191406 C 146.621094 129.183594 145.289062 129.863281 144.457031 131.011719 L 140.816406 136.0625 Z M 116.726562 151.527344 "/>
<path style=" stroke:none;fill-rule:nonzero;fill:rgb(24.705882%,23.921569%,33.72549%);fill-opacity:1;" d="M 131.226562 182.414062 L 128.179688 188.941406 L 126.097656 193.398438 L 122.523438 212.15625 L 120.730469 214.058594 L 119.195312 207.320312 L 103.136719 210.890625 C 102.609375 207.960938 102.996094 210.988281 102.671875 207.773438 C 102.761719 207.683594 102.859375 207.589844 102.953125 207.5 C 103.210938 207.261719 103.425781 207.035156 103.421875 206.820312 C 103.238281 195.730469 103.789062 176.855469 108.378906 165.417969 C 109.097656 163.550781 110.042969 161.78125 111.199219 160.148438 C 111.289062 160.023438 111.378906 159.898438 111.464844 159.777344 C 113.582031 156.808594 114.917969 153.886719 116.816406 151.808594 L 116.816406 151.804688 C 116.828125 151.792969 116.835938 151.785156 116.847656 151.773438 C 116.855469 151.769531 116.859375 151.765625 116.863281 151.757812 L 129.890625 144.839844 L 130.449219 160.566406 L 130.847656 171.867188 Z M 131.226562 182.414062 "/>
<path style=" stroke:none;fill-rule:nonzero;fill:rgb(24.705882%,23.921569%,33.72549%);fill-opacity:1;" d="M 178.195312 184.265625 L 182.003906 192.417969 L 183.332031 195.257812 L 186.90625 214.011719 L 188.691406 215.914062 L 190.230469 209.175781 L 190.953125 209.027344 L 203.984375 206.324219 L 207.785156 218.40625 C 209.546875 215.460938 209 211.679688 206.472656 209.355469 C 206.214844 209.121094 206 208.890625 206.003906 208.675781 C 206.222656 195.628906 205.425781 171.808594 198.226562 162.003906 C 195.941406 158.894531 194.570312 155.796875 192.578125 153.628906 C 192.570312 153.625 192.570312 153.617188 192.5625 153.617188 L 187.710938 145.65625 L 187.414062 145.167969 L 187.078125 145 Z M 178.195312 184.265625 "/>
<path style=" stroke:none;fill-rule:nonzero;fill:rgb(100%,71.372549%,71.372549%);fill-opacity:1;" d="M 173.039062 107.441406 C 173.039062 117.335938 165.027344 125.359375 155.148438 125.359375 C 145.265625 125.359375 137.257812 117.335938 137.257812 107.441406 C 137.257812 97.546875 145.265625 89.523438 155.148438 89.523438 C 165.027344 89.523438 173.039062 97.546875 173.039062 107.441406 Z M 173.039062 107.441406 "/>
<path style=" stroke:none;fill-rule:nonzero;fill:rgb(18.431373%,18.039216%,25.490196%);fill-opacity:1;" d="M 179.328125 94.925781 C 179.050781 94.625 178.660156 94.453125 178.25 94.449219 L 178.519531 93.699219 C 178.699219 93.21875 178.605469 92.679688 178.273438 92.289062 C 177.945312 91.898438 177.429688 91.714844 176.929688 91.808594 L 175.949219 92 L 176.042969 91.34375 C 176.113281 90.847656 175.917969 90.347656 175.527344 90.035156 C 175.140625 89.71875 174.613281 89.632812 174.140625 89.808594 C 173.71875 89.976562 173.238281 89.941406 172.839844 89.714844 C 172.441406 89.496094 172.160156 89.113281 172.070312 88.664062 L 171.730469 87.015625 L 171.691406 86.929688 C 170.03125 84.152344 166.835938 82.136719 162.921875 81.394531 C 159.441406 80.730469 155.871094 81.070312 152.433594 81.386719 C 151.066406 81.515625 149.523438 81.660156 148.238281 82.449219 C 147.148438 83.125 146.222656 84.476562 146.414062 85.839844 C 143.019531 84.796875 139.382812 86.875 137.578125 89.496094 C 135.441406 92.617188 135.09375 96.527344 135.039062 99.582031 C 134.886719 106.8125 136.375 112.726562 139.453125 117.164062 C 139.679688 117.488281 139.734375 118.160156 140.179688 118.382812 L 140.089844 118.234375 C 140.585938 118.484375 141.09375 118.886719 140.902344 119.316406 C 140.363281 120.554688 143.964844 123.292969 146.5 124.199219 C 151.128906 125.851562 157.285156 125.710938 161.613281 125.117188 L 161.765625 124.089844 C 163.328125 123.878906 164.429688 123.472656 164.738281 122.835938 C 165.285156 122.367188 165.75 121.949219 166.15625 121.566406 L 166.160156 121.5625 C 166.167969 121.554688 166.183594 121.539062 166.191406 121.53125 C 168.148438 119.65625 168.601562 118.585938 168.804688 116.957031 C 169.003906 115.359375 168.652344 113.738281 168.296875 112.28125 C 175.820312 113.445312 165.332031 104.253906 172.34375 102.476562 C 172.421875 102.453125 172.503906 102.433594 172.589844 102.417969 C 172.792969 102.367188 172.996094 102.320312 173.195312 102.265625 C 174.144531 102.007812 175.050781 101.617188 175.894531 101.109375 C 177.851562 99.917969 178.5 98.332031 179.511719 96.546875 C 179.808594 96.023438 179.738281 95.367188 179.328125 94.925781 Z M 179.328125 94.925781 "/>
<path style=" stroke:none;fill-rule:nonzero;fill:rgb(18.431373%,18.039216%,25.490196%);fill-opacity:1;" d="M 218.425781 185.542969 C 218.421875 186.246094 218.414062 187.230469 218.382812 188.449219 C 218.378906 188.617188 218.375 188.792969 218.371094 188.96875 C 218.316406 191.207031 218.265625 193.085938 218.179688 195.171875 C 218.175781 195.316406 218.171875 195.457031 218.164062 195.601562 C 218.054688 198.515625 217.875 201.902344 217.570312 207.273438 C 217.003906 217.1875 216.015625 208.636719 215.027344 212.113281 C 214.976562 212.285156 214.925781 212.492188 214.875 212.734375 C 214.726562 213.609375 214.472656 214.460938 214.121094 215.277344 C 213.597656 215.589844 213.054688 215.894531 212.519531 216.195312 C 211 217.042969 209.453125 217.859375 207.894531 218.636719 C 207.019531 219.070312 206.140625 219.496094 205.257812 219.90625 C 205.117188 219.96875 204.980469 220.035156 204.84375 220.09375 C 200.320312 222.191406 195.65625 223.972656 190.890625 225.425781 C 189.957031 225.707031 189.03125 225.980469 188.089844 226.234375 C 187.113281 226.507812 186.132812 226.765625 185.140625 227.007812 C 177.761719 228.820312 170.210938 229.84375 162.617188 230.058594 C 161.59375 230.089844 160.5625 230.101562 159.527344 230.101562 C 159.011719 230.101562 158.507812 230.097656 157.992188 230.09375 C 157.835938 230.09375 157.679688 230.089844 157.523438 230.085938 C 157.070312 230.074219 156.597656 230.066406 156.125 230.054688 C 146.960938 229.769531 137.875 228.304688 129.082031 225.699219 L 128.710938 225.589844 C 128.132812 225.414062 127.558594 225.242188 126.984375 225.058594 C 124.332031 224.214844 121.722656 223.277344 119.148438 222.234375 C 117.1875 221.441406 115.246094 220.59375 113.328125 219.683594 C 113.308594 219.679688 113.292969 219.671875 113.277344 219.660156 C 112.878906 219.476562 112.472656 219.28125 112.070312 219.085938 C 112.019531 219.058594 111.960938 219.03125 111.90625 219 C 110.40625 218.269531 108.925781 217.503906 107.460938 216.703125 C 106.226562 213.867188 104.492188 213.324219 103.417969 210.832031 C 103.105469 210.089844 102.878906 209.316406 102.742188 208.523438 C 102.742188 208.515625 102.738281 208.507812 102.738281 208.496094 C 102.851562 209.992188 102.261719 205.839844 102.734375 208.476562 C 102.730469 208.429688 102.726562 208.378906 102.722656 208.316406 C 102.710938 208.171875 102.695312 207.996094 102.671875 207.773438 C 101.292969 194.308594 101.382812 178.90625 100.785156 166.21875 C 100.742188 165.398438 100.703125 164.613281 100.660156 163.863281 C 100.648438 163.613281 100.632812 163.367188 100.613281 163.125 C 100.644531 163.054688 100.675781 162.976562 100.710938 162.90625 C 100.71875 162.882812 100.726562 162.863281 100.738281 162.84375 C 100.75 162.820312 100.765625 162.796875 100.78125 162.773438 C 100.789062 162.761719 100.800781 162.742188 100.808594 162.730469 C 100.8125 162.71875 100.820312 162.703125 100.828125 162.691406 C 100.863281 162.636719 100.902344 162.574219 100.949219 162.519531 C 100.96875 162.496094 100.984375 162.472656 101.003906 162.453125 C 101.019531 162.433594 101.035156 162.414062 101.050781 162.398438 C 101.066406 162.378906 101.078125 162.359375 101.097656 162.347656 C 101.113281 162.328125 101.128906 162.308594 101.148438 162.289062 C 101.15625 162.277344 101.167969 162.265625 101.179688 162.257812 C 101.214844 162.222656 101.246094 162.1875 101.285156 162.15625 C 101.429688 162.023438 101.582031 161.902344 101.742188 161.792969 C 101.800781 161.757812 101.859375 161.722656 101.914062 161.683594 C 102.320312 161.441406 102.746094 161.234375 103.1875 161.070312 C 103.339844 161.015625 103.492188 160.960938 103.660156 160.90625 C 103.71875 160.890625 103.773438 160.871094 103.835938 160.851562 C 103.921875 160.820312 104.011719 160.792969 104.105469 160.773438 C 104.5625 160.636719 105.054688 160.519531 105.589844 160.410156 C 105.652344 160.398438 105.722656 160.386719 105.789062 160.371094 C 105.886719 160.351562 105.988281 160.335938 106.085938 160.320312 C 106.222656 160.296875 106.363281 160.269531 106.503906 160.246094 C 107.699219 160.058594 109.050781 159.917969 110.542969 159.824219 C 110.683594 159.816406 110.824219 159.808594 110.964844 159.800781 C 111.132812 159.792969 111.296875 159.785156 111.464844 159.777344 C 111.605469 159.769531 111.75 159.765625 111.894531 159.761719 C 112.035156 159.753906 112.179688 159.75 112.328125 159.746094 C 112.734375 159.730469 113.152344 159.71875 113.578125 159.710938 C 114.789062 159.6875 116.066406 159.695312 117.40625 159.722656 C 118.027344 159.738281 118.664062 159.757812 119.3125 159.785156 C 119.359375 159.785156 119.398438 159.789062 119.4375 159.789062 C 120.003906 159.808594 120.574219 159.832031 121.160156 159.863281 C 121.570312 159.886719 121.984375 159.90625 122.398438 159.929688 C 122.789062 159.953125 123.179688 159.976562 123.578125 160.003906 C 123.886719 160.023438 124.195312 160.046875 124.507812 160.066406 C 124.773438 160.085938 125.039062 160.105469 125.304688 160.121094 L 125.667969 160.144531 C 125.863281 160.164062 126.058594 160.175781 126.261719 160.195312 C 126.703125 160.230469 127.144531 160.265625 127.59375 160.304688 C 128.039062 160.34375 128.492188 160.382812 128.945312 160.421875 C 129.398438 160.464844 129.859375 160.507812 130.316406 160.550781 C 130.363281 160.554688 130.40625 160.558594 130.453125 160.566406 C 130.871094 160.609375 131.289062 160.648438 131.710938 160.691406 C 131.804688 160.699219 131.90625 160.710938 132.003906 160.722656 C 132.402344 160.761719 132.8125 160.808594 133.21875 160.851562 C 133.34375 160.867188 133.46875 160.878906 133.59375 160.890625 C 133.910156 160.925781 134.222656 160.957031 134.542969 160.996094 C 134.964844 161.042969 135.394531 161.085938 135.8125 161.144531 C 136.136719 161.179688 136.464844 161.214844 136.789062 161.257812 C 137.296875 161.316406 137.816406 161.378906 138.335938 161.449219 C 138.53125 161.472656 138.726562 161.496094 138.925781 161.527344 C 140.402344 161.710938 141.894531 161.914062 143.414062 162.128906 C 145.714844 162.453125 148.050781 162.808594 150.402344 163.191406 C 152.761719 163.570312 155.132812 163.976562 157.515625 164.402344 C 158.117188 164.507812 158.71875 164.617188 159.324219 164.730469 C 159.597656 164.78125 159.871094 164.835938 160.144531 164.886719 C 160.609375 164.972656 161.078125 165.058594 161.542969 165.148438 C 162.007812 165.238281 162.472656 165.324219 162.941406 165.417969 C 163.492188 165.527344 164.050781 165.636719 164.605469 165.742188 C 168.253906 166.46875 171.886719 167.238281 175.425781 168.046875 C 176.007812 168.179688 176.589844 168.316406 177.167969 168.449219 C 178.324219 168.71875 179.472656 168.992188 180.605469 169.269531 C 180.917969 169.34375 181.230469 169.417969 181.539062 169.496094 C 182.308594 169.6875 183.082031 169.882812 183.839844 170.078125 L 183.972656 170.113281 C 184.53125 170.25 185.074219 170.390625 185.621094 170.535156 C 186.910156 170.875 188.179688 171.214844 189.425781 171.5625 C 190.25 171.789062 191.070312 172.023438 191.878906 172.257812 C 193.085938 172.605469 194.269531 172.960938 195.421875 173.320312 C 195.707031 173.40625 195.992188 173.496094 196.273438 173.582031 C 197.117188 173.839844 197.949219 174.105469 198.753906 174.371094 C 199.398438 174.582031 200.023438 174.792969 200.644531 175.007812 C 201.261719 175.222656 201.867188 175.433594 202.460938 175.648438 C 202.84375 175.785156 203.21875 175.929688 203.597656 176.066406 C 204.140625 176.265625 204.675781 176.46875 205.195312 176.667969 C 205.355469 176.730469 205.511719 176.792969 205.667969 176.851562 C 205.769531 176.898438 205.867188 176.933594 205.964844 176.972656 C 206.152344 177.050781 206.34375 177.121094 206.527344 177.199219 C 206.71875 177.273438 206.902344 177.347656 207.085938 177.429688 C 207.269531 177.5 207.453125 177.578125 207.628906 177.652344 C 207.808594 177.726562 207.988281 177.800781 208.164062 177.882812 C 208.3125 177.941406 208.457031 178.007812 208.597656 178.070312 C 208.882812 178.195312 209.167969 178.320312 209.445312 178.449219 C 209.582031 178.515625 209.71875 178.574219 209.855469 178.640625 L 210.167969 178.785156 C 210.210938 178.808594 210.253906 178.828125 210.300781 178.847656 C 210.398438 178.894531 210.503906 178.949219 210.605469 178.996094 C 210.835938 179.105469 211.066406 179.222656 211.292969 179.332031 C 211.59375 179.484375 211.886719 179.636719 212.167969 179.785156 C 212.453125 179.9375 212.730469 180.089844 212.992188 180.238281 C 213.039062 180.261719 213.078125 180.289062 213.121094 180.3125 C 213.183594 180.34375 213.242188 180.378906 213.304688 180.410156 C 213.507812 180.527344 213.703125 180.648438 213.902344 180.765625 C 214.285156 181.003906 214.652344 181.234375 214.992188 181.46875 C 215.070312 181.523438 215.140625 181.574219 215.21875 181.621094 C 215.472656 181.804688 215.710938 181.980469 215.9375 182.160156 C 215.9375 182.164062 215.9375 182.164062 215.941406 182.164062 C 216.015625 182.222656 216.089844 182.28125 216.160156 182.339844 C 216.222656 182.394531 216.285156 182.441406 216.347656 182.5 C 216.554688 182.679688 216.746094 182.851562 216.925781 183.03125 C 216.984375 183.085938 217.039062 183.140625 217.09375 183.203125 C 217.117188 183.222656 217.136719 183.242188 217.15625 183.265625 C 217.238281 183.347656 217.308594 183.425781 217.378906 183.507812 C 217.390625 183.519531 217.398438 183.53125 217.40625 183.542969 C 217.503906 183.65625 217.589844 183.769531 217.675781 183.882812 C 217.714844 183.9375 217.761719 183.996094 217.796875 184.050781 C 217.84375 184.121094 217.890625 184.191406 217.933594 184.261719 C 217.96875 184.316406 218 184.375 218.03125 184.433594 C 218.117188 184.578125 218.191406 184.730469 218.25 184.886719 C 218.292969 184.992188 218.332031 185.105469 218.359375 185.21875 C 218.386719 185.324219 218.410156 185.433594 218.425781 185.542969 Z M 218.425781 185.542969 "/>
<use xlink:href="#surface5" mask="url(#mask0)"/>
</g>
</svg>
